<?xml version="1.0" standalone="no"?>
<!DOCTYPE svg PUBLIC "-//W3C//DTD SVG 20010904//EN"
 "http://www.w3.org/TR/2001/REC-SVG-20010904/DTD/svg10.dtd">
<svg version="1.0" xmlns="http://www.w3.org/2000/svg"
 width="16.000000pt" height="16.000000pt" viewBox="0 0 16.000000 16.000000"
 preserveAspectRatio="xMidYMid meet">
<metadata>
Created by potrace 1.11, written by Peter Selinger 2001-2013
</metadata>
<g transform="translate(0.000000,16.000000) scale(0.006154,-0.006154)"
fill="#000000" stroke="none">
<path d="M1048 2570 c-392 -83 -716 -333 -896 -695 -82 -166 -120 -319 -128
-520 -12 -286 59 -537 221 -780 253 -378 715 -598 1171 -555 556 51 995 428
1132 969 25 99 27 121 26 316 0 184 -3 221 -22 300 -64 253 -168 441 -342 615
-187 187 -412 307 -665 355 -116 22 -383 19 -497 -5z m539 -23 c130 -32 219
-66 310 -120 126 -74 231 -150 242 -174 14 -29 14 -33 1 -33 -5 0 -10 7 -10
16 0 13 -3 14 -14 5 -17 -14 -66 2 -66 21 0 7 -17 21 -38 31 -35 17 -52 28
-124 86 -34 28 -88 40 -67 15 6 -8 18 -14 26 -14 8 0 42 -21 76 -47 34 -26 64
-49 66 -50 2 -1 1 -10 -3 -19 -5 -14 -9 -14 -24 -3 -9 7 -7 2 6 -12 25 -29 29
-44 8 -36 -8 3 -16 1 -18 -4 -2 -5 -19 4 -37 20 -19 17 -36 29 -38 27 -6 -6
26 -60 55 -90 32 -34 47 -83 25 -83 -7 0 -16 10 -19 21 -4 12 -15 32 -25 45
-19 23 -19 23 -19 2 0 -25 -26 -39 -43 -22 -6 6 -20 11 -31 11 -11 0 -35 17
-53 38 -18 20 -31 29 -27 20 7 -22 -21 -25 -33 -5 -13 22 -43 29 -43 11 0 -11
-6 -14 -16 -10 -8 3 -12 2 -9 -4 7 -12 -18 -14 -29 -3 -4 4 -15 8 -23 8 -9 0
-25 14 -35 30 -36 60 -36 65 0 68 33 2 22 39 -17 60 -18 10 -36 16 -39 13 -3
-3 0 -6 6 -6 7 0 12 -7 12 -15 0 -22 -21 -18 -27 5 -7 28 -23 25 -23 -5 0 -14
0 -28 0 -32 0 -5 4 -8 9 -8 21 0 19 -13 -4 -25 -16 -8 -25 -22 -25 -37 0 -13
-5 -23 -11 -23 -11 0 -39 -24 -39 -34 0 -22 -87 -86 -117 -86 -17 0 -21 -4
-16 -16 4 -10 0 -20 -10 -26 -10 -5 -14 -15 -10 -26 6 -15 5 -15 -10 -3 -15
12 -16 16 -4 30 14 16 19 51 8 51 -12 0 -81 -51 -81 -59 0 -5 3 -23 6 -40 6
-31 24 -44 24 -17 0 8 6 16 13 19 23 9 42 -10 43 -44 1 -19 -1 -26 -6 -19 -4
7 -13 9 -19 6 -15 -10 -14 -24 2 -23 36 1 49 -4 44 -17 -4 -10 2 -18 16 -22
21 -7 21 -7 2 -14 -15 -5 -23 -1 -33 19 l-12 26 4 -28 c3 -23 0 -27 -16 -21
-20 6 -20 6 -1 -13 20 -20 52 -37 65 -35 3 1 12 -5 19 -14 10 -13 6 -14 -32
-12 -24 2 -51 10 -59 18 -25 26 -68 41 -74 27 -5 -9 -8 -8 -12 2 -5 9 -8 10
-13 2 -5 -8 -16 -9 -31 -3 l-24 9 23 13 c14 7 42 10 69 7 30 -3 40 -2 31 5
-11 7 -11 11 -1 15 6 2 12 14 12 25 0 20 -1 20 -18 5 -24 -22 -43 -22 -35 -1
5 13 1 15 -18 9 -16 -4 -20 -3 -10 3 8 6 9 12 3 16 -5 3 -15 -1 -22 -9 -7 -8
-20 -15 -28 -15 -12 0 -13 -3 -5 -11 8 -8 7 -16 -5 -30 -12 -14 -18 -16 -25
-6 -7 9 -10 9 -14 0 -8 -21 -33 -15 -33 7 0 11 7 20 15 20 8 0 15 4 15 10 0 5
-7 7 -16 3 -12 -4 -15 -2 -12 8 7 20 91 50 100 35 12 -19 31 10 25 36 -5 20
-13 24 -49 25 -25 1 -53 -4 -67 -14 -17 -11 -36 -14 -67 -9 -57 7 -112 -17
-120 -54 -3 -14 -13 -40 -21 -59 -14 -31 -14 -39 -1 -75 14 -38 18 -41 57 -43
41 -3 48 2 88 50 6 8 9 18 5 21 -3 4 1 4 10 1 9 -4 19 -2 22 4 5 7 13 7 26 -2
21 -12 27 -37 10 -37 -5 0 -12 -17 -16 -37 -4 -21 -12 -45 -20 -53 -11 -13 -8
-15 19 -13 18 1 43 2 56 2 l24 1 -27 21 c-15 12 -25 28 -22 35 3 8 0 14 -7 14
-7 0 -4 5 6 11 22 13 69 8 75 -8 2 -7 -3 -13 -12 -13 -30 0 -16 -27 24 -45 22
-10 38 -20 36 -22 -2 -3 -14 0 -25 7 -27 14 -27 3 1 -19 l21 -18 -27 -7 -28
-7 21 -18 c11 -10 18 -21 14 -25 -4 -4 -8 -13 -9 -22 -2 -11 1 -12 11 -4 10 8
15 8 20 0 4 -6 14 -9 22 -6 8 3 11 1 8 -4 -6 -9 6 -13 71 -24 26 -4 33 -1 37
14 3 11 14 20 25 20 10 0 31 9 45 20 24 19 46 13 32 -10 -3 -6 1 -7 9 -4 9 3
16 10 16 16 0 5 20 -5 44 -23 26 -18 51 -29 60 -26 9 4 16 1 16 -5 0 -6 8 -4
18 5 23 21 33 22 26 2 -4 -8 -1 -15 5 -15 6 0 11 5 11 11 0 6 9 8 20 4 11 -4
20 -2 20 4 0 6 5 11 10 11 6 0 10 -6 10 -13 0 -7 25 -35 55 -61 40 -34 61 -46
75 -41 27 9 77 -20 103 -60 12 -19 26 -35 31 -35 4 0 33 -25 64 -55 39 -40 68
-59 99 -68 44 -12 73 -40 53 -52 -5 -3 -10 -15 -10 -25 0 -10 -6 -21 -12 -23
-8 -3 -6 -6 5 -6 9 -1 17 5 17 13 0 7 7 19 15 26 9 7 15 8 15 2 0 -6 10 -8 22
-4 19 4 21 3 12 -9 -6 -8 -15 -35 -18 -61 -4 -27 -11 -48 -17 -48 -5 0 -9 4
-9 9 0 5 -6 11 -13 14 -9 3 -14 -6 -15 -30 -2 -20 -7 -44 -12 -54 -6 -10 -10
-20 -10 -23 0 -14 62 -59 117 -86 40 -20 60 -35 57 -44 -3 -7 2 -19 11 -26 8
-7 15 -9 15 -5 0 4 7 2 15 -5 8 -7 12 -16 9 -21 -3 -5 0 -9 5 -9 14 0 14 -27
1 -35 -6 -4 -9 -1 -8 6 2 6 -3 14 -9 16 -8 3 -13 -4 -13 -18 0 -22 0 -22 -15
-3 -12 16 -14 17 -15 2 0 -14 -4 -14 -25 -5 -21 10 -24 17 -19 39 6 32 -3 34
-68 19 -32 -8 -38 -6 -38 8 -1 14 -2 14 -13 1 -20 -26 -101 -76 -133 -83 -16
-3 -38 -9 -48 -13 -14 -5 -17 -4 -12 4 4 7 2 12 -3 12 -6 0 -11 -9 -11 -20 0
-11 -5 -20 -11 -20 -6 0 -9 7 -5 15 6 17 -2 19 -24 5 -12 -8 -12 -10 -1 -10
11 0 11 -3 1 -15 -16 -19 -30 -19 -30 -1 0 7 -6 19 -14 25 -12 10 -13 8 -9 -8
3 -13 1 -21 -6 -21 -7 0 -9 5 -6 10 8 13 -15 13 -35 0 -10 -6 -11 -10 -2 -10
6 0 12 -4 12 -10 0 -5 -7 -10 -15 -10 -18 0 -20 -17 -3 -22 7 -3 21 5 31 16
l18 21 -7 -24 c-6 -22 -4 -23 20 -17 18 4 26 2 26 -6 0 -9 3 -9 9 2 6 8 8 17
5 21 -2 4 0 10 6 14 21 13 9 -34 -12 -49 -12 -9 -17 -16 -10 -16 6 0 12 -7 12
-16 0 -8 5 -12 10 -9 6 3 13 -1 16 -10 4 -9 13 -14 20 -11 8 3 11 0 7 -9 -3
-8 -8 -13 -12 -10 -4 2 -8 -3 -8 -11 0 -8 6 -13 14 -9 49 20 49 20 34 2 -8
-10 -10 -21 -6 -25 4 -4 10 -1 12 6 4 11 63 48 63 39 0 -2 -7 -19 -16 -36 -13
-26 -21 -32 -40 -28 -16 3 -24 0 -24 -10 0 -10 6 -12 20 -8 11 4 20 2 20 -4 0
-6 -15 -11 -32 -12 -18 0 -27 -3 -20 -6 6 -2 12 -11 12 -19 0 -9 5 -12 10 -9
6 3 10 1 10 -5 0 -7 -8 -9 -19 -5 -18 5 -39 -10 -28 -21 9 -9 146 29 140 39
-3 6 -1 7 5 4 17 -11 -7 -61 -36 -75 -29 -13 -53 -16 -37 -4 6 4 16 15 23 24
14 18 14 18 -68 -10 -8 -3 -22 -4 -30 -3 -11 1 -10 -2 3 -9 10 -6 23 -10 30
-7 6 2 18 -2 25 -10 8 -8 24 -11 40 -7 26 5 26 5 7 -11 -11 -8 -26 -13 -35 -9
-28 12 -85 13 -92 1 -5 -8 -16 -8 -43 0 -54 17 -93 -1 -86 -40 1 -4 -16 -6
-36 -3 -21 3 -30 3 -20 0 28 -9 19 -21 -13 -16 -17 2 -30 10 -30 19 0 8 -4 11
-10 8 -5 -3 -10 -1 -10 4 0 6 -11 11 -25 11 -14 0 -25 -4 -25 -10 0 -5 10 -10
23 -10 21 -1 21 -1 3 -12 -15 -9 -22 -7 -33 8 -9 13 -10 20 -3 22 7 3 5 13 -5
29 -13 19 -14 28 -5 37 9 8 11 7 8 -3 -3 -16 30 -35 81 -46 22 -5 31 -4 27 3
-3 6 0 13 6 16 7 3 0 4 -17 1 -31 -5 -65 8 -52 21 3 4 13 1 22 -6 20 -17 20 4
-1 24 -19 19 -34 21 -35 4 0 -12 -17 19 -18 35 -1 12 35 8 65 -8 36 -18 41
-13 17 19 -19 26 -53 41 -53 24 0 -6 -11 -8 -27 -4 -21 5 -24 4 -13 -4 13 -8
13 -10 -1 -10 -9 0 -19 -7 -23 -15 -3 -8 -16 -15 -30 -15 -18 0 -25 -6 -28
-22 -2 -12 -19 -33 -38 -46 -32 -21 -33 -23 -13 -28 21 -6 21 -8 7 -29 -13
-20 -13 -23 1 -29 9 -3 26 -6 38 -6 22 1 22 1 -1 13 -32 18 -18 27 24 16 19
-6 39 -7 45 -3 6 4 15 1 19 -6 6 -10 15 -10 39 -2 17 6 31 7 31 2 0 -12 -57
-30 -104 -31 -34 -2 -36 -3 -11 -7 31 -4 138 10 210 29 22 6 52 10 68 9 15 0
27 4 27 10 0 11 46 12 73 1 29 -11 17 -25 -43 -45 -32 -11 -65 -31 -79 -47
-49 -59 -256 -117 -446 -126 -198 -9 -385 34 -590 136 -138 69 -228 134 -333
241 -79 79 -158 187 -147 198 4 4 11 -1 16 -10 5 -9 16 -24 24 -32 8 -8 15
-17 15 -19 0 -10 64 -77 73 -77 5 0 6 8 2 17 -3 10 12 1 33 -20 29 -29 38 -44
34 -60 -3 -12 -1 -19 3 -15 4 4 30 -12 58 -37 27 -24 55 -41 62 -38 7 2 16 0
20 -6 3 -6 -2 -11 -12 -12 -14 0 -12 -3 7 -12 14 -6 30 -16 35 -22 6 -6 24
-17 40 -24 l30 -13 -27 29 c-28 29 -38 50 -18 38 6 -3 10 -2 10 4 0 5 -16 19
-35 31 -30 19 -40 35 -37 61 1 9 -70 65 -93 73 -11 3 -56 41 -100 83 -115 111
-181 163 -192 152 -9 -9 -79 124 -87 167 -3 10 -7 28 -11 39 -6 16 -3 15 14
-5 11 -14 21 -30 21 -37 0 -7 9 -17 20 -23 11 -6 18 -15 16 -19 -3 -5 15 -17
39 -27 25 -10 45 -22 45 -26 0 -4 9 -8 19 -8 10 0 22 -8 25 -17 6 -15 8 -15
17 -3 8 13 13 11 30 -10 l20 -25 -6 23 c-6 20 -1 17 29 -15 26 -28 36 -33 36
-20 0 9 -4 17 -10 17 -5 0 -10 7 -10 15 0 8 5 15 11 15 6 0 9 7 5 15 -3 8 -1
15 5 15 7 0 9 -10 5 -26 -8 -32 20 -70 39 -54 9 8 11 4 8 -12 -5 -27 12 -78
27 -78 14 0 50 -32 44 -41 -2 -4 9 -21 26 -37 16 -17 30 -35 30 -40 0 -5 7
-15 15 -22 12 -10 15 -10 15 1 0 8 14 -2 30 -21 22 -26 30 -30 30 -17 0 9 5
17 10 17 6 0 10 -11 10 -25 0 -16 6 -25 15 -25 8 0 15 -6 15 -14 0 -7 16 -26
35 -40 l35 -27 -11 25 c-6 13 -19 26 -28 29 -10 2 -17 16 -19 33 -1 16 2 25 6
19 4 -5 12 -11 19 -12 6 -2 23 -14 37 -28 14 -14 35 -25 48 -25 22 1 22 1 4
15 -11 8 -25 15 -32 15 -15 0 -36 58 -27 74 13 23 58 65 71 66 17 0 15 -10 -7
-34 -33 -36 -30 -124 3 -93 10 9 11 14 2 20 -8 6 -8 10 2 14 6 2 12 11 12 19
0 15 16 19 22 6 2 -5 16 -12 32 -16 29 -7 29 -7 13 18 -14 21 -14 25 -2 30 8
3 15 1 15 -3 0 -16 32 -22 48 -9 12 10 16 10 19 1 3 -7 12 -9 21 -5 16 5 16 5
0 -11 -18 -18 -33 -23 -23 -8 3 5 1 12 -3 15 -12 7 -36 -39 -28 -52 3 -6 15
-8 26 -5 12 3 20 0 20 -7 0 -10 3 -10 14 -1 8 7 16 8 18 3 1 -5 12 -12 24 -16
17 -5 22 0 32 31 11 37 11 37 7 5 -4 -30 -1 -35 30 -48 39 -16 48 -17 41 -6
-2 4 4 8 14 8 10 0 16 -4 14 -8 -6 -10 42 -22 55 -13 6 3 11 15 11 26 0 10 4
19 10 19 5 0 7 6 4 14 -6 16 21 86 33 86 4 0 8 26 8 58 0 31 2 68 5 81 4 22 0
26 -28 32 -18 4 -42 15 -54 25 -19 17 -21 17 -15 1 4 -9 2 -17 -3 -17 -6 0
-10 6 -11 13 0 9 -2 9 -6 -1 -2 -6 -10 -9 -16 -5 -11 7 -33 12 -69 15 -10 1
-18 7 -18 12 0 6 -5 5 -12 -2 -18 -18 -23 -15 -25 18 -1 17 2 30 7 30 5 0 11
8 15 19 4 13 13 17 33 14 25 -4 26 -3 7 8 -22 14 -36 31 -30 38 3 2 12 -2 22
-10 11 -9 14 -10 9 -1 -4 7 -2 12 4 12 6 0 8 5 4 12 -4 7 -3 8 5 4 6 -4 9 -12
6 -17 -4 -5 1 -9 10 -9 13 0 14 4 5 20 -11 21 -33 29 -87 33 -17 1 -30 4 -28
6 2 2 -3 10 -11 18 -17 17 -9 37 12 29 8 -3 14 -1 14 5 0 6 7 8 16 5 15 -6 15
-4 3 10 -7 9 -15 12 -17 6 -2 -7 -14 -7 -34 -1 -30 8 -57 1 -30 -8 6 -3 12 -9
12 -15 0 -6 -8 -4 -18 5 -10 10 -24 17 -30 17 -26 0 -19 17 8 18 28 1 70 32
70 52 0 13 -13 13 -27 -1 -9 -9 -10 -6 -6 12 6 20 4 22 -9 12 -12 -10 -18 -10
-33 1 -20 14 -45 11 -45 -6 0 -5 12 -20 26 -33 29 -27 21 -34 -10 -10 -16 12
-22 12 -29 2 -5 -8 -6 -5 -3 8 3 11 2 26 -3 33 -6 11 -11 10 -25 -3 -14 -14
-17 -15 -22 -2 -3 9 -12 18 -20 21 -8 3 -13 2 -10 -2 9 -14 -94 -3 -110 12 -8
9 -20 16 -25 16 -24 0 -5 18 24 23 25 3 36 -1 52 -19 26 -30 33 -30 31 0 -1
16 -6 22 -15 18 -9 -3 -12 -1 -7 6 4 7 3 19 -2 28 -7 12 -4 22 10 36 11 11 23
17 26 13 4 -4 -1 -12 -10 -19 -10 -7 -15 -16 -12 -19 10 -9 34 19 34 40 0 12
7 19 19 19 11 0 19 -5 18 -11 -1 -5 13 -9 31 -9 17 1 32 -2 32 -8 0 -5 4 -7 9
-4 4 3 19 -6 31 -19 13 -14 33 -25 44 -25 11 0 31 -10 44 -22 14 -13 22 -17
18 -10 -4 6 -2 12 4 12 7 0 9 -7 6 -16 -8 -21 27 -69 53 -71 12 -1 21 2 21 8
0 5 -4 9 -10 9 -5 0 -10 10 -10 23 -1 28 -22 57 -43 57 -9 0 -19 5 -22 10 -3
6 -1 10 5 10 6 0 8 10 5 23 -4 15 -1 28 9 36 14 12 14 16 1 34 -8 12 -15 34
-15 49 0 28 -22 39 -35 18 -3 -5 -11 -10 -16 -10 -6 0 -7 5 -3 12 4 7 3 8 -5
4 -6 -4 -9 -12 -6 -17 4 -5 -1 -9 -9 -9 -9 0 -16 -5 -16 -11 0 -5 -5 -7 -10
-4 -6 4 -7 11 -4 17 4 7 2 8 -5 4 -13 -9 -41 10 -41 28 0 7 3 6 9 -2 12 -19
30 6 28 41 -2 23 -4 25 -13 12 -6 -8 -20 -15 -32 -15 -11 0 -22 -6 -25 -12 -3
-10 -8 -10 -21 2 -16 13 -20 12 -31 -3 -17 -23 -35 -22 -35 3 0 11 -5 20 -11
20 -8 0 -8 4 0 14 7 9 8 17 3 20 -6 3 -13 -5 -16 -19 -4 -16 -11 -22 -21 -19
-8 4 -18 -1 -21 -10 -6 -15 -8 -15 -20 1 -13 17 -13 17 -14 1 0 -20 -20 -25
-21 -5 0 10 -2 10 -6 0 -2 -7 -13 -13 -23 -13 -10 0 -21 -6 -23 -12 -4 -10 -7
-10 -15 0 -11 15 -25 1 -36 -35 -8 -25 -26 -31 -26 -10 0 7 7 22 15 33 17 22
20 38 5 29 -6 -3 -7 1 -4 9 3 9 10 13 15 10 5 -3 9 2 9 11 0 9 -5 13 -11 10
-5 -4 -22 -4 -36 0 -24 6 -25 7 -8 25 15 16 16 22 5 35 -7 9 -10 18 -7 21 3 4
0 12 -6 19 -10 11 -15 10 -29 -2 -20 -18 -24 -43 -7 -43 5 0 7 -5 3 -12 -5 -8
-10 -6 -16 8 -10 22 49 145 73 152 11 4 12 2 2 -9 -18 -18 -16 -29 5 -29 15 0
60 40 54 47 -1 2 1 17 5 34 8 44 22 23 26 -42 2 -30 7 -61 11 -67 4 -6 2 -21
-4 -32 -9 -16 -8 -20 6 -20 10 0 14 5 10 15 -3 8 -1 15 4 15 17 0 60 -43 53
-53 -3 -6 -1 -7 6 -3 6 4 9 12 6 17 -3 5 1 6 9 3 26 -10 18 11 -9 26 -19 10
-22 16 -14 26 9 11 13 11 25 0 7 -8 23 -12 34 -9 17 4 18 8 8 20 -10 12 -9 14
8 11 21 -3 64 -42 64 -58 0 -15 37 -12 54 6 9 8 20 12 26 9 5 -3 10 -1 10 5 0
8 6 8 20 0 11 -6 24 -8 29 -5 5 3 21 1 35 -5 21 -7 26 -6 26 5 0 8 -7 15 -15
15 -8 0 -23 10 -34 22 -17 18 -23 19 -36 8 -22 -18 -55 -20 -55 -3 0 8 -12 13
-29 13 -17 0 -33 4 -36 10 -3 5 -28 8 -55 6 -28 -2 -50 -1 -50 3 0 14 60 75
60 61 1 -11 4 -10 16 5 13 17 16 18 24 5 14 -21 12 -30 -4 -24 -8 3 -17 1 -20
-4 -3 -5 3 -12 14 -15 12 -3 23 1 28 10 10 17 48 13 45 -5 -2 -6 7 -17 18 -23
17 -9 23 -8 30 2 6 10 3 15 -10 17 -11 2 -22 14 -25 28 -5 19 -11 24 -25 19
-22 -7 -67 11 -99 39 -17 15 -37 21 -72 21 l-48 0 6 -35 c5 -33 5 -34 -12 -17
-9 9 -14 21 -11 27 3 5 1 18 -4 27 -10 17 -10 16 -11 -2 0 -14 -7 -21 -19 -21
-11 0 -17 5 -14 13 3 7 0 13 -6 13 -11 0 -15 -24 -11 -67 1 -13 -3 -23 -9 -23
-13 0 -24 37 -15 52 5 10 4 10 -6 1 -7 -7 -14 -24 -16 -39 -3 -30 -26 -58 -69
-86 -27 -18 -28 -19 -5 -13 21 6 23 5 12 -6 -8 -9 -34 -14 -67 -14 l-54 0 40
36 c40 35 42 49 7 49 -10 0 -18 4 -18 8 0 11 -51 36 -66 34 -6 -1 -11 5 -11
13 0 18 11 19 37 5 24 -13 35 3 15 20 -8 7 -15 20 -15 29 0 9 -7 29 -15 45 -8
15 -13 31 -11 35 3 4 1 13 -4 20 -6 10 -11 6 -21 -15 -16 -33 -66 -43 -102
-20 -39 25 -67 29 -67 11 0 -9 4 -14 9 -11 5 3 12 -1 15 -10 3 -8 10 -12 16
-9 5 3 10 1 10 -5 0 -7 -7 -9 -16 -6 -18 7 -60 -19 -45 -28 5 -4 12 -2 16 3 7
12 45 10 45 -2 0 -4 4 -6 9 -2 5 3 18 -8 27 -25 10 -16 22 -30 27 -30 4 0 5
-5 1 -11 -4 -7 -16 -2 -33 14 -53 49 -80 43 -81 -18 0 -16 -5 -37 -10 -45 -13
-21 -33 1 -32 37 1 15 2 46 2 68 2 60 28 145 45 145 8 0 15 8 15 18 0 15 2 15
11 2 8 -12 9 -10 4 7 -3 12 -1 24 5 28 9 6 12 -3 14 -49 1 -11 8 -22 15 -24 8
-3 11 0 7 6 -4 7 5 9 28 5 21 -3 36 -1 41 7 5 9 1 10 -14 5 -13 -4 -28 -1 -36
5 -16 14 -20 40 -6 40 5 0 8 -7 7 -16 -2 -24 20 -29 29 -7 15 40 14 61 -5 78
-11 10 -20 28 -19 39 0 12 3 15 6 9 2 -7 10 -13 16 -13 5 0 7 3 4 7 -4 3 0 14
9 24 14 15 14 17 -3 15 -10 0 -17 5 -15 12 1 8 -2 11 -8 7 -6 -3 -8 -10 -5
-14 5 -9 -35 -49 -41 -41 -3 3 -18 -17 -34 -45 -16 -27 -25 -52 -21 -55 5 -3
-6 -23 -25 -44 -19 -22 -34 -35 -34 -30 1 15 28 59 37 59 4 0 7 8 5 19 -1 10
28 64 65 120 80 120 225 269 288 297 24 11 47 24 50 29 3 6 11 10 17 10 6 0 2
-10 -10 -22 -20 -22 -22 -26 -22 -48 0 -5 -7 -7 -15 -4 -8 4 -16 1 -16 -5 -1
-6 -3 -15 -4 -21 -1 -5 -3 -12 -4 -15 0 -4 -8 -2 -17 3 -12 7 -23 3 -38 -12
-11 -11 -20 -25 -18 -29 1 -4 -5 -7 -14 -5 -11 2 -18 -5 -20 -20 -3 -14 0 -21
6 -17 15 9 12 -11 -3 -24 -8 -6 -18 -7 -22 -3 -5 4 -5 2 -1 -5 3 -6 2 -14 -4
-18 -18 -11 -10 -27 11 -22 15 4 19 2 15 -9 -3 -8 0 -14 7 -14 22 1 54 35 66
73 18 52 33 57 25 8 -10 -62 3 -49 16 17 7 31 21 69 32 84 10 15 24 41 29 58
6 16 15 30 21 30 5 0 8 5 6 12 -11 32 171 137 307 177 136 40 221 51 385 46
120 -3 178 -9 257 -28z m-97 -352 c0 -17 -2 -18 -24 -9 -23 9 -20 24 4 24 11
0 20 -7 20 -15z m670 5 c0 -5 -2 -10 -4 -10 -3 0 -8 5 -11 10 -3 6 -1 10 4 10
6 0 11 -4 11 -10z m-125 -10 c3 -5 1 -10 -4 -10 -6 0 -11 5 -11 10 0 6 2 10 4
10 3 0 8 -4 11 -10z m198 -68 c19 -20 25 -32 17 -37 -15 -9 -52 24 -43 39 4 6
0 5 -9 -2 -11 -9 -18 -10 -23 -2 -3 5 0 10 7 11 10 0 10 2 1 6 -7 2 -13 11
-13 19 0 19 26 6 63 -34z m-240 -78 c7 -7 -30 -44 -44 -44 -4 0 -2 11 4 25 12
24 27 32 40 19z m367 -79 c11 -33 21 -77 22 -97 1 -21 5 -38 8 -38 7 0 43 -70
54 -102 3 -10 -1 -24 -9 -32 -8 -8 -15 -23 -15 -33 0 -14 -4 -12 -18 9 -12 19
-22 24 -28 18 -7 -7 -16 -4 -29 10 -10 11 -13 20 -7 20 7 0 12 -4 12 -10 0 -5
7 -7 15 -4 22 9 18 35 -5 41 -10 3 -22 14 -25 24 -4 10 -11 19 -16 19 -6 0 -9
10 -8 23 2 12 0 28 -4 35 -5 7 -3 12 7 12 8 0 17 6 19 13 4 9 8 8 17 -3 16
-22 2 94 -16 128 -8 15 -14 34 -14 42 0 25 17 -7 40 -75z m-1040 66 c0 -6 -4
-13 -10 -16 -5 -3 -10 1 -10 9 0 9 5 16 10 16 6 0 10 -4 10 -9z m-40 -11 c0
-5 -5 -10 -11 -10 -5 0 -7 5 -4 10 3 6 8 10 11 10 2 0 4 -4 4 -10z m245 -1
c11 -17 2 -18 -25 -4 -24 14 -24 14 -3 15 12 0 25 -5 28 -11z m-1240 -38 c-3
-5 -1 -12 4 -16 6 -3 8 -12 5 -20 -4 -8 -10 -13 -14 -10 -5 3 -11 1 -15 -5 -3
-5 -14 -10 -23 -9 -13 0 -12 3 5 11 17 8 21 17 17 34 -5 18 -2 24 11 24 9 0
14 -4 10 -9z m1143 -43 c12 -6 22 -15 22 -19 0 -9 -29 -1 -47 14 -10 7 -13 4
-13 -12 0 -11 -5 -21 -11 -21 -6 0 -9 7 -6 15 4 8 2 17 -3 20 -6 4 -10 11 -10
16 0 11 30 5 68 -13z m-447 -28 c-7 -3 -9 -14 -6 -22 4 -9 2 -19 -4 -22 -13
-9 -61 4 -61 15 0 5 12 6 27 3 23 -6 25 -4 21 14 -3 12 -1 23 6 25 16 6 30 -4
17 -13z m1300 -15 c5 4 9 -3 9 -15 0 -13 -4 -19 -11 -14 -8 5 -8 1 0 -14 12
-23 2 -35 -23 -26 -18 7 -22 24 -6 24 7 0 7 6 0 20 -8 14 -8 20 0 20 6 0 8 5
5 10 -3 6 -3 16 2 23 5 8 9 5 11 -11 2 -12 8 -20 13 -17z m-1386 5 c-3 -5 -10
-10 -16 -10 -5 0 -9 5 -9 10 0 6 7 10 16 10 8 0 12 -4 9 -10z m1275 -10 c0 -5
-2 -10 -4 -10 -3 0 -8 5 -11 10 -3 6 -1 10 4 10 6 0 11 -4 11 -10z m253 -44
c6 -16 -2 -28 -14 -20 -12 7 -11 34 0 34 5 0 11 -6 14 -14z m-1043 -6 c0 -5
-4 -10 -10 -10 -5 0 -10 5 -10 10 0 6 5 10 10 10 6 0 10 -4 10 -10z m-40 -10
c0 -5 -4 -10 -10 -10 -5 0 -10 5 -10 10 0 6 5 10 10 10 6 0 10 -4 10 -10z
m840 1 c0 -6 -4 -13 -10 -16 -5 -3 -10 1 -10 9 0 9 5 16 10 16 6 0 10 -4 10
-9z m-1350 -22 c0 -5 -4 -9 -10 -9 -5 0 -10 7 -10 16 0 8 5 12 10 9 6 -3 10
-10 10 -16z m810 11 c0 -5 -5 -10 -11 -10 -5 0 -7 5 -4 10 3 6 8 10 11 10 2 0
4 -4 4 -10z m-212 -32 c18 -8 30 -17 27 -20 -9 -8 -45 3 -45 13 0 5 -5 9 -11
9 -5 0 -8 -4 -5 -9 3 -5 -1 -12 -10 -15 -9 -4 -17 -5 -18 -4 -1 2 -9 12 -19
24 -17 20 -17 21 15 19 18 -1 48 -9 66 -17z m287 2 c-3 -5 -11 -10 -16 -10 -6
0 -7 5 -4 10 3 6 11 10 16 10 6 0 7 -4 4 -10z m-1565 -14 c0 -8 -5 -18 -11
-22 -14 -8 -5 -132 11 -148 5 -5 10 -15 10 -20 0 -6 -11 2 -26 17 -24 27 -25
29 -15 103 6 41 11 77 11 80 0 2 5 4 10 4 6 0 10 -6 10 -14z m1190 -12 c0 -2
-7 -4 -15 -4 -8 0 -15 4 -15 10 0 5 7 7 15 4 8 -4 15 -8 15 -10z m199 -1 c0
-5 -4 -17 -9 -28 -8 -19 -9 -19 -9 2 -1 15 -6 21 -15 17 -8 -3 -17 -1 -21 5
-4 7 5 11 24 11 17 0 31 -3 30 -7z m176 -3 c-3 -5 -11 -10 -16 -10 -6 0 -7 5
-4 10 3 6 11 10 16 10 6 0 7 -4 4 -10z m-135 -10 c0 -5 -2 -10 -4 -10 -3 0 -8
5 -11 10 -3 6 -1 10 4 10 6 0 11 -4 11 -10z m630 -20 c0 -5 -7 -10 -15 -10 -8
0 -15 5 -15 10 0 6 7 10 15 10 8 0 15 -4 15 -10z m-471 -23 c13 -16 5 -27 -21
-27 -18 0 -25 20 -11 33 10 10 19 8 32 -6z m-1339 -17 c0 -5 -4 -10 -10 -10
-5 0 -10 5 -10 10 0 6 5 10 10 10 6 0 10 -4 10 -10z m1110 0 c0 -5 -10 -10
-22 -10 -19 0 -20 2 -8 10 19 13 30 13 30 0z m-70 -4 c0 -2 -7 -6 -15 -10 -8
-3 -15 -1 -15 4 0 6 7 10 15 10 8 0 15 -2 15 -4z m140 -21 c4 -11 3 -23 -4
-27 -17 -11 -46 -9 -46 3 0 5 5 7 10 4 6 -3 10 -1 10 4 0 6 -7 11 -15 11 -8 0
-15 6 -15 13 0 22 52 15 60 -8z m760 1 c0 -3 -4 -8 -10 -11 -5 -3 -10 -1 -10
4 0 6 5 11 10 11 6 0 10 -2 10 -4z m-820 -16 c0 -5 -4 -10 -10 -10 -5 0 -10 5
-10 10 0 6 5 10 10 10 6 0 10 -4 10 -10z m341 -10 c17 0 9 -18 -10 -23 -15 -4
-18 -1 -13 12 5 14 4 14 -11 2 -9 -7 -17 -9 -17 -4 0 16 13 24 28 18 7 -3 18
-5 23 -5z m-1505 -17 c12 -16 15 -16 25 -3 8 11 12 12 16 2 2 -6 9 -10 14 -6
5 3 9 0 9 -5 0 -6 7 -11 15 -11 12 0 13 -4 5 -19 -5 -11 -7 -26 -4 -34 3 -8 1
-18 -5 -22 -19 -11 -12 -22 20 -29 19 -3 28 -10 23 -17 -5 -8 -8 -8 -13 0 -5
7 -16 0 -29 -19 -18 -24 -29 -29 -56 -27 -25 1 -32 6 -28 17 4 11 -1 10 -16
-4 -26 -23 -29 -11 -4 17 16 19 16 20 0 14 -10 -3 -20 -2 -23 3 -3 5 4 12 16
15 l21 7 -21 14 c-11 8 -18 21 -15 29 4 8 1 15 -5 15 -6 0 -11 7 -11 15 0 8 4
15 9 15 5 0 12 11 15 25 7 29 23 32 42 8z m884 -15 c0 -18 -17 -14 -26 7 -11
22 -10 23 7 12 11 -7 19 -15 19 -19z m1235 -28 c3 -5 1 -10 -4 -10 -6 0 -11 5
-11 10 0 6 2 10 4 10 3 0 8 -4 11 -10z m-1705 -4 c0 -2 -7 -7 -16 -10 -8 -3
-12 -2 -9 4 6 10 25 14 25 6z m1032 -18 c-6 -6 -15 -8 -19 -4 -4 4 -1 11 7 16
19 12 27 3 12 -12z m-1735 -20 c-3 -8 -6 -5 -6 6 -1 11 2 17 5 13 3 -3 4 -12
1 -19z m115 0 c-7 -7 -12 -8 -12 -2 0 14 12 26 19 19 2 -3 -1 -11 -7 -17z
m548 12 c0 -5 -4 -10 -10 -10 -5 0 -10 5 -10 10 0 6 5 10 10 10 6 0 10 -4 10
-10z m-530 -45 c-7 -9 -15 -13 -18 -10 -3 2 1 11 8 20 7 9 15 13 18 10 3 -2
-1 -11 -8 -20z m40 10 c-7 -9 -15 -13 -19 -10 -3 3 1 10 9 15 21 14 24 12 10
-5z m2212 -61 l-4 -34 -25 20 c-14 11 -37 20 -50 20 -13 0 -22 4 -18 10 3 5
12 7 19 4 9 -3 18 6 25 27 l11 31 23 -22 c17 -17 22 -30 19 -56z m45 56 c-3
-11 -1 -18 4 -14 5 3 9 -1 9 -8 -1 -18 -26 -49 -33 -41 -11 11 -8 25 4 18 6
-4 5 1 -2 13 -13 21 -6 52 12 52 6 0 9 -9 6 -20z m-283 4 c23 -9 20 -23 -4
-17 -11 3 -20 9 -20 14 0 11 3 11 24 3z m-1991 -54 c3 -11 1 -23 -4 -26 -5 -3
-8 0 -7 8 2 7 -3 12 -9 11 -13 -3 -18 19 -7 30 10 10 21 0 27 -23z m-56 -8
c-9 -10 -13 -30 -11 -49 4 -36 2 -38 -27 -23 -13 7 -19 7 -20 0 -1 -5 -2 -16
-3 -22 -1 -7 3 -19 8 -27 9 -12 7 -13 -5 -9 -9 4 -27 0 -38 -9 -26 -18 -39
-10 -21 12 8 10 9 15 1 15 -6 0 -11 17 -11 40 0 22 5 40 10 40 6 0 10 -15 10
-32 l1 -33 13 31 c14 32 56 79 78 87 22 8 30 -4 15 -21z m107 -4 c-5 -8 -2 -9
9 -5 10 3 17 3 17 -1 0 -10 -22 -32 -32 -32 -10 0 -11 34 -1 43 10 11 15 8 7
-5z m252 -37 c-5 -19 -4 -22 4 -11 8 13 10 13 10 -2 0 -10 -9 -27 -20 -38
l-20 -20 0 21 c0 18 -2 19 -15 9 -14 -11 -14 -10 -5 14 18 48 31 67 41 60 6
-3 8 -18 5 -33z m-36 25 c0 -3 -4 -8 -10 -11 -5 -3 -10 -1 -10 4 0 6 5 11 10
11 6 0 10 -2 10 -4z m110 -6 c0 -5 -5 -10 -11 -10 -5 0 -7 5 -4 10 3 6 8 10
11 10 2 0 4 -4 4 -10z m-413 -55 c0 -8 -4 -12 -9 -9 -4 3 -8 9 -8 15 0 5 4 9
8 9 5 0 9 -7 9 -15z m267 -10 c-4 -8 -2 -15 2 -15 5 0 9 -13 10 -29 1 -21 -2
-26 -10 -19 -13 12 -14 78 -1 78 2 0 2 -7 -1 -15z m-324 -10 c0 -8 -4 -15 -10
-15 -5 0 -7 7 -4 15 4 8 8 15 10 15 2 0 4 -7 4 -15z m645 -41 c20 -20 11 -32
-10 -14 -13 11 -14 10 -9 -4 7 -19 -2 -21 -20 -4 -9 9 -10 16 -2 25 15 16 22
16 41 -3z m1720 -32 c-2 -15 -4 -31 -4 -35 -1 -5 -7 -7 -13 -5 -7 3 -13 20
-13 40 0 28 3 34 17 30 11 -3 15 -12 13 -30z m-2281 22 c9 -3 16 -15 16 -25 0
-17 -3 -18 -20 -7 -11 7 -20 18 -20 25 0 15 2 15 24 7z m688 -6 c6 -17 -3 -68
-12 -68 -5 0 -8 18 -7 40 2 39 11 52 19 28z m-812 -6 c0 -5 -7 -24 -16 -42
-14 -27 -15 -39 -5 -71 9 -30 9 -44 -1 -61 -12 -21 -13 -18 -22 40 -7 48 -6
66 3 72 16 10 17 11 2 37 -10 19 -9 22 4 17 8 -4 15 -1 15 5 0 6 5 11 10 11 6
0 10 -4 10 -8z m50 -44 c-1 -28 -2 -30 -11 -15 -6 10 -8 25 -5 33 9 24 16 16
16 -18z m115 22 c3 -5 1 -10 -4 -10 -6 0 -11 5 -11 10 0 6 2 10 4 10 3 0 8 -4
11 -10z m345 0 c0 -5 -4 -10 -10 -10 -5 0 -10 5 -10 10 0 6 5 10 10 10 6 0 10
-4 10 -10z m180 -21 c0 -14 -17 -10 -23 5 -4 10 -1 13 9 9 7 -3 14 -9 14 -14z
m-260 7 c0 -2 -7 -9 -15 -16 -12 -10 -15 -10 -15 4 0 9 7 16 15 16 8 0 15 -2
15 -4z m-40 -26 c0 -5 -4 -10 -10 -10 -5 0 -10 5 -10 10 0 6 5 10 10 10 6 0
10 -4 10 -10z m50 -10 c0 -5 -4 -10 -10 -10 -5 0 -10 5 -10 10 0 6 5 10 10 10
6 0 10 -4 10 -10z m52 -4 c19 -10 28 -11 31 -3 2 8 6 7 11 -1 4 -7 2 -12 -4
-12 -6 0 -8 -4 -5 -10 10 -16 -11 -12 -25 5 -7 8 -18 15 -26 15 -7 0 -16 5
-19 10 -9 14 5 12 37 -4z m94 -13 c-7 -7 -26 7 -26 19 0 6 6 6 15 -2 9 -7 13
-15 11 -17z m-276 7 c0 -5 -4 -10 -10 -10 -5 0 -10 5 -10 10 0 6 5 10 10 10 6
0 10 -4 10 -10z m420 -10 c0 -11 -4 -20 -10 -20 -5 0 -10 2 -10 4 0 2 -3 11
-6 20 -4 11 -1 16 10 16 9 0 16 -8 16 -20z m-100 -42 c0 -14 -16 -9 -34 11
-13 15 -14 20 -4 24 13 5 38 -19 38 -35z m400 12 c0 -5 -5 -10 -11 -10 -5 0
-7 5 -4 10 3 6 8 10 11 10 2 0 4 -4 4 -10z m-319 -17 c13 -16 12 -17 -3 -4
-10 7 -18 15 -18 17 0 8 8 3 21 -13z m-41 -3 c0 -5 -4 -10 -10 -10 -5 0 -10 5
-10 10 0 6 5 10 10 10 6 0 10 -4 10 -10z m-113 -26 c19 -14 32 -28 30 -31 -6
-6 -77 40 -77 50 0 13 12 8 47 -19z m-347 -4 c0 -5 -5 -10 -11 -10 -5 0 -7 5
-4 10 3 6 8 10 11 10 2 0 4 -4 4 -10z m108 -42 c2 -9 0 -8 -7 2 -7 10 -11 11
-11 3 0 -7 -4 -13 -10 -13 -5 0 -10 7 -10 15 0 8 -7 15 -15 15 -8 0 -15 4 -15
10 0 13 64 -16 68 -32z m1832 32 c0 -5 -4 -10 -10 -10 -5 0 -10 5 -10 10 0 6
5 10 10 10 6 0 10 -4 10 -10z m124 -26 c5 -14 4 -15 -9 -4 -17 14 -19 20 -6
20 5 0 12 -7 15 -16z m-2284 -28 c0 -8 7 -19 15 -26 8 -7 15 -18 14 -24 0 -7
-2 -6 -6 2 -2 6 -11 12 -18 12 -13 0 -25 21 -25 46 0 9 5 12 10 9 6 -3 10 -12
10 -19z m93 -13 c4 -21 2 -42 -5 -50 -8 -10 -6 -13 6 -13 10 0 14 -5 11 -11
-5 -7 -14 -4 -27 8 -11 10 -15 19 -9 21 6 2 10 18 10 35 -2 31 -2 31 -6 5 -2
-16 -9 -28 -15 -28 -5 0 -8 7 -4 15 3 8 1 15 -4 15 -6 0 -10 8 -10 18 0 11 8
18 24 20 20 1 24 -4 29 -35z m552 17 c3 -5 1 -10 -4 -10 -6 0 -11 5 -11 10 0
6 2 10 4 10 3 0 8 -4 11 -10z m-265 -32 c0 -16 -36 -3 -37 14 -2 15 1 16 18 5
10 -6 19 -15 19 -19z m1794 17 c-4 -8 -8 -15 -10 -15 -2 0 -4 7 -4 15 0 8 4
15 10 15 5 0 7 -7 4 -15z m200 -44 c-2 -3 -12 3 -21 12 -14 14 -14 18 -2 33
12 15 14 14 21 -12 4 -15 5 -30 2 -33z m-2235 18 c-25 -16 -4 -9 36 11 38 19
67 18 32 -1 -9 -6 -17 -19 -17 -31 0 -16 -5 -19 -21 -15 -15 4 -19 2 -15 -8 8
-23 -12 -27 -24 -5 -6 11 -7 20 -3 20 4 0 2 4 -4 8 -10 6 -9 14 4 32 11 16 18
19 21 11 2 -7 -2 -17 -9 -22z m151 24 c0 -5 -12 -9 -27 -10 -19 -1 -22 1 -12
8 17 11 39 12 39 2z m273 1 c3 -3 28 -7 56 -9 30 -2 58 -11 67 -20 15 -15 14
-15 -12 -9 -16 4 -34 11 -41 16 -24 19 -34 -3 -11 -22 14 -12 18 -19 10 -20
-7 0 -19 6 -27 13 -25 24 -52 44 -66 50 -11 4 -10 6 2 6 9 1 18 -2 22 -5z
m142 -4 c3 -5 1 -10 -4 -10 -6 0 -11 5 -11 10 0 6 2 10 4 10 3 0 8 -4 11 -10z
m175 -4 c0 -3 -4 -8 -10 -11 -5 -3 -10 -1 -10 4 0 6 5 11 10 11 6 0 10 -2 10
-4z m-99 -27 c-12 -12 -25 -18 -28 -15 -9 9 18 36 35 36 12 0 11 -5 -7 -21z
m-537 -5 c3 -9 4 -20 1 -24 -3 -5 -1 -11 5 -15 13 -8 13 -35 0 -35 -5 0 -10 7
-10 15 0 8 -4 15 -10 15 -5 0 -6 8 -3 18 6 15 5 15 -10 3 -20 -16 -22 -8 -5
19 15 24 24 25 32 4z m38 4 c-9 -9 -15 -9 -24 0 -9 9 -7 12 12 12 19 0 21 -3
12 -12z m241 5 c-7 -2 -19 -2 -25 0 -7 3 -2 5 12 5 14 0 19 -2 13 -5z m297 -7
c0 -3 -4 -8 -10 -11 -5 -3 -10 -1 -10 4 0 6 5 11 10 11 6 0 10 -2 10 -4z m38
-16 c-7 -10 -14 -17 -17 -15 -4 4 18 35 25 35 2 0 -1 -9 -8 -20z m-358 0 c0
-5 -2 -10 -4 -10 -3 0 -8 5 -11 10 -3 6 -1 10 4 10 6 0 11 -4 11 -10z m185 2
c6 -4 16 -15 24 -25 13 -16 9 -15 -22 3 -20 12 -37 24 -37 26 0 7 24 4 35 -4z
m-500 -32 c3 -5 1 -10 -4 -10 -6 0 -11 5 -11 10 0 6 2 10 4 10 3 0 8 -4 11
-10z m735 -16 c0 -8 -3 -14 -6 -14 -10 0 -33 27 -28 33 10 9 34 -4 34 -19z
m-420 6 c0 -5 -2 -10 -4 -10 -3 0 -8 5 -11 10 -3 6 -1 10 4 10 6 0 11 -4 11
-10z m68 -31 c2 -8 -2 -6 -8 4 -6 9 -18 17 -25 17 -8 0 -15 5 -15 11 0 16 43
-13 48 -32z m131 25 c13 -12 -8 -10 -29 2 l-25 15 25 -7 c14 -3 27 -8 29 -10z
m-402 0 c-3 -3 -12 -4 -19 -1 -8 3 -5 6 6 6 11 1 17 -2 13 -5z m19 -41 c-10
-10 -19 5 -10 18 6 11 8 11 12 0 2 -7 1 -15 -2 -18z m-61 7 c3 -5 1 -10 -4
-10 -6 0 -11 5 -11 10 0 6 2 10 4 10 3 0 8 -4 11 -10z m496 -17 c13 -16 12
-17 -3 -4 -10 7 -18 15 -18 17 0 8 8 3 21 -13z m-354 1 c-3 -3 -12 -4 -19 -1
-8 3 -5 6 6 6 11 1 17 -2 13 -5z m593 -4 c0 -12 -8 -12 -35 0 -18 8 -17 9 8 9
15 1 27 -3 27 -9z m-170 -21 c0 -5 -4 -9 -10 -9 -5 0 -10 7 -10 16 0 8 5 12
10 9 6 -3 10 -10 10 -16z m-365 -5 c11 -8 20 -18 20 -22 0 -4 10 -7 23 -6 22
0 22 0 4 -18 -20 -21 -57 -14 -48 8 3 8 1 14 -5 14 -6 0 -8 4 -5 9 4 5 -6 14
-21 19 -22 8 -23 11 -8 11 11 0 29 -6 40 -15z m385 -23 c0 -5 9 -11 19 -14 15
-4 19 -12 17 -33 -4 -36 -25 -41 -57 -14 -23 19 -23 21 -5 34 10 8 15 19 11
25 -3 6 -1 11 4 11 6 0 11 -4 11 -9z m-300 -25 c0 -3 -4 -8 -10 -11 -5 -3 -10
-1 -10 4 0 6 5 11 10 11 6 0 10 -2 10 -4z m250 -5 c0 -12 -20 -25 -27 -18 -7
7 6 27 18 27 5 0 9 -4 9 -9z m-197 -21 c7 0 8 -3 1 -10 -12 -12 -56 -1 -48 12
3 5 13 7 21 4 8 -3 20 -6 26 -6z m-303 -15 c7 -9 8 -15 2 -15 -5 0 -12 7 -16
15 -3 8 -4 15 -2 15 2 0 9 -7 16 -15z m737 -27 c-3 -8 -6 -5 -6 6 -1 11 2 17
5 13 3 -3 4 -12 1 -19z m-302 -8 c-3 -5 -2 -10 4 -10 5 0 11 4 13 9 2 5 9 2
17 -6 11 -13 9 -14 -15 -11 -26 3 -48 28 -24 28 6 0 8 -4 5 -10z m-145 -10 c0
-5 -4 -10 -10 -10 -5 0 -10 5 -10 10 0 6 5 10 10 10 6 0 10 -4 10 -10z m315 0
c3 -5 11 -7 18 -5 19 7 38 -10 31 -28 -3 -9 -11 -14 -17 -10 -7 4 -8 -4 -4
-24 5 -27 3 -31 -18 -35 -26 -5 -55 7 -55 24 0 5 7 8 15 4 8 -3 15 -1 15 4 0
4 -24 20 -52 34 -29 14 -43 24 -31 23 12 -2 25 -6 28 -9 11 -10 45 4 45 18 0
16 16 19 25 4z m-757 -75 c-3 -3 -9 2 -12 12 -6 14 -5 15 5 6 7 -7 10 -15 7
-18z m412 5 c0 -5 -5 -10 -11 -10 -5 0 -7 5 -4 10 3 6 8 10 11 10 2 0 4 -4 4
-10z m590 -50 c0 -5 -4 -10 -10 -10 -5 0 -10 5 -10 10 0 6 5 10 10 10 6 0 10
-4 10 -10z m-299 -56 c14 -17 11 -17 -30 -3 -17 6 -31 14 -31 19 0 12 48 -1
61 -16z m-96 6 c-3 -5 -12 -10 -18 -10 -7 0 -6 4 3 10 19 12 23 12 15 0z m20
-39 c-3 -6 -11 -11 -17 -11 -6 0 -6 6 2 15 14 17 26 13 15 -4z m140 8 c12 -19
-5 -23 -22 -6 -16 16 -16 17 -1 17 9 0 20 -5 23 -11z m107 -12 c44 -3 57 -12
28 -20 -11 -3 -22 -2 -25 3 -3 4 -22 4 -42 -1 -47 -11 -77 -10 -43 1 14 4 19
8 13 9 -7 1 -13 6 -13 11 0 6 10 8 23 5 12 -3 39 -7 59 -8z m89 0 c-9 -11 -2
-17 32 -27 23 -8 49 -13 57 -11 11 1 12 0 2 -7 -16 -11 -112 18 -112 34 0 7 6
15 13 17 19 8 20 8 8 -6z m-411 -7 c0 -5 -5 -10 -11 -10 -5 0 -7 5 -4 10 3 6
8 10 11 10 2 0 4 -4 4 -10z m357 -47 c3 -9 -8 -10 -35 -4 -2 1 0 6 3 12 8 12
27 7 32 -8z m-13 -38 c3 -8 1 -15 -4 -15 -6 0 -10 7 -10 15 0 8 2 15 4 15 2 0
6 -7 10 -15z m131 -25 c3 -5 1 -10 -4 -10 -6 0 -11 5 -11 10 0 6 2 10 4 10 3
0 8 -4 11 -10z m50 -30 c3 -5 -1 -10 -9 -10 -9 0 -16 5 -16 10 0 6 4 10 9 10
6 0 13 -4 16 -10z m610 -80 c3 -5 1 -10 -4 -10 -6 0 -11 5 -11 10 0 6 2 10 4
10 3 0 8 -4 11 -10z m35 0 c0 -5 -2 -10 -4 -10 -3 0 -8 5 -11 10 -3 6 -1 10 4
10 6 0 11 -4 11 -10z"/>
<path d="M1635 2510 c-3 -5 3 -10 15 -10 12 0 18 5 15 10 -3 6 -10 10 -15 10
-5 0 -12 -4 -15 -10z"/>
<path d="M1119 2499 c-16 -10 0 -15 52 -18 26 -1 50 2 54 8 3 6 3 11 -2 12
-72 4 -95 4 -104 -2z"/>
<path d="M1390 2500 l-25 -8 25 -1 c14 0 32 4 40 9 13 9 13 10 0 9 -8 -1 -26
-5 -40 -9z"/>
<path d="M1540 2480 c0 -5 -15 -10 -34 -10 -19 0 -37 -4 -40 -9 -3 -5 31 -9
75 -9 45 0 78 2 74 6 -7 7 -13 9 -47 11 -19 1 -20 3 -8 11 13 8 12 10 -2 10
-10 0 -18 -4 -18 -10z"/>
<path d="M1185 2450 c3 -5 12 -10 19 -10 8 0 13 -7 12 -16 -2 -24 20 -29 26
-6 3 12 -2 23 -13 30 -23 15 -52 16 -44 2z"/>
<path d="M1643 2433 c-13 -2 -23 -9 -23 -14 0 -15 36 -10 50 6 7 8 9 14 4 14
-5 -1 -19 -4 -31 -6z"/>
<path d="M918 2423 c6 -2 18 -2 25 0 6 3 1 5 -13 5 -14 0 -19 -2 -12 -5z"/>
<path d="M1580 2381 c-14 -27 -13 -29 14 -24 17 4 22 10 19 24 -7 24 -19 24
-33 0z"/>
<path d="M710 2380 c0 -5 7 -7 15 -4 8 4 15 8 15 10 0 2 -7 4 -15 4 -8 0 -15
-4 -15 -10z"/>
<path d="M1743 2373 c-10 -10 -13 -14 -6 -9 16 10 17 1 3 -25 -9 -16 -7 -19 9
-19 11 0 21 -5 23 -12 3 -7 11 -9 24 -3 18 7 17 8 -6 14 -24 7 -42 41 -21 41
6 0 11 7 11 15 0 20 -13 19 -37 -2z"/>
<path d="M1900 2386 c0 -3 9 -10 20 -16 11 -6 20 -8 20 -6 0 3 -9 10 -20 16
-11 6 -20 8 -20 6z"/>
<path d="M1083 2367 c-14 -23 -42 -28 -53 -9 -9 14 -10 13 -5 -6 5 -16 1 -31
-12 -45 -15 -19 -15 -20 -1 -8 11 8 28 11 43 7 14 -4 25 -2 25 4 0 5 7 10 15
10 12 0 11 -4 -5 -20 -21 -21 -26 -45 -11 -54 5 -3 14 8 20 24 5 17 14 30 19
30 5 0 20 9 33 21 13 11 31 25 39 29 19 11 8 22 -14 14 -9 -3 -13 -11 -9 -16
4 -7 -4 -9 -23 -4 -16 4 -34 7 -41 8 -6 1 -9 7 -6 15 7 17 -4 17 -14 0z"/>
<path d="M1651 2359 c8 -16 8 -24 -2 -33 -6 -6 -9 -6 -6 -1 3 6 2 17 -4 25 -7
13 -9 12 -9 -2 0 -11 -8 -18 -20 -18 -18 0 -19 -3 -10 -20 7 -13 16 -18 23
-13 7 4 21 8 32 8 11 0 20 6 19 13 -1 6 -2 23 -2 37 -1 15 -8 25 -17 25 -13 0
-14 -4 -4 -21z"/>
<path d="M1950 2355 c0 -6 59 -37 63 -33 1 2 13 -7 27 -19 13 -13 31 -23 39
-23 9 0 -1 12 -22 26 -40 27 -107 58 -107 49z"/>
<path d="M1334 2276 c-3 -9 -13 -12 -27 -8 -20 5 -20 4 -8 -11 7 -9 21 -17 29
-17 14 0 14 -1 1 -12 -22 -19 -49 -65 -42 -72 11 -11 24 -6 17 6 -5 7 -2 9 7
6 26 -10 62 17 64 48 1 16 -3 32 -9 37 -6 4 0 6 13 5 13 -2 26 3 29 11 3 10
-2 12 -22 7 -15 -4 -26 -2 -26 4 0 15 -20 12 -26 -4z"/>
<path d="M1008 2273 c6 -2 18 -2 25 0 6 3 1 5 -13 5 -14 0 -19 -2 -12 -5z"/>
<path d="M1416 2241 c-17 -19 -17 -19 3 -14 12 3 21 12 21 19 0 18 -4 18 -24
-5z"/>
<path d="M670 2205 c-7 -8 -9 -15 -6 -15 4 0 14 7 22 15 9 8 11 15 6 15 -5 0
-15 -7 -22 -15z"/>
<path d="M750 2213 c-8 -3 -25 -14 -37 -23 -19 -15 -20 -20 -9 -29 11 -9 15
-7 19 9 3 11 12 20 20 20 8 0 17 7 21 15 3 8 4 15 3 14 -1 0 -9 -3 -17 -6z"/>
<path d="M640 2170 c-9 -6 -10 -10 -3 -10 6 0 15 5 18 10 8 12 4 12 -15 0z"/>
<path d="M736 2167 c3 -10 9 -15 12 -12 3 3 0 11 -7 18 -10 9 -11 8 -5 -6z"/>
<path d="M1080 2139 c0 -5 5 -7 10 -4 6 3 10 8 10 11 0 2 -4 4 -10 4 -5 0 -10
-5 -10 -11z"/>
<path d="M498 2013 c-14 -21 -33 -55 -43 -76 -10 -21 -29 -43 -41 -48 -16 -5
-22 -14 -18 -24 3 -8 10 -12 15 -9 5 3 9 -5 9 -18 0 -22 1 -22 29 7 15 17 41
40 57 52 27 21 28 22 10 41 -12 14 -14 22 -6 27 6 4 9 13 6 21 -3 8 -1 25 4
39 13 35 7 31 -22 -12z"/>
<path d="M537 2018 c-2 -7 0 -26 5 -43 4 -16 8 -42 8 -57 0 -20 5 -28 18 -28
10 0 24 -6 31 -12 8 -8 7 -2 -3 17 -34 68 -44 96 -39 115 6 21 -12 28 -20 8z"/>
<path d="M606 2001 c-19 -21 -15 -71 7 -89 9 -8 12 5 13 49 0 32 0 59 -1 59
-1 0 -10 -9 -19 -19z"/>
<path d="M391 1987 c-6 -8 -8 -17 -4 -20 12 -12 19 -7 19 13 0 24 0 24 -15 7z"/>
<path d="M374 1898 l-19 -23 23 19 c21 18 27 26 19 26 -2 0 -12 -10 -23 -22z"/>
<path d="M742 1890 c-1 -35 8 -43 26 -24 7 8 8 14 2 14 -5 0 -10 6 -10 14 0
29 -17 25 -18 -4z"/>
<path d="M620 1885 c0 -5 6 -27 14 -49 13 -38 13 -38 20 -12 4 16 11 24 18 20
7 -4 8 -3 4 4 -4 7 -13 12 -21 12 -8 0 -19 8 -24 18 -6 9 -10 13 -11 7z"/>
<path d="M730 1826 c0 -2 7 -7 16 -10 8 -3 12 -2 9 4 -6 10 -25 14 -25 6z"/>
<path d="M970 1819 c0 -5 5 -7 10 -4 6 3 10 8 10 11 0 2 -4 4 -10 4 -5 0 -10
-5 -10 -11z"/>
<path d="M580 1771 c0 -5 5 -13 10 -16 6 -3 10 -2 10 4 0 5 -4 13 -10 16 -5 3
-10 2 -10 -4z"/>
<path d="M728 1772 c-23 -4 -23 -18 -2 -26 20 -8 27 -3 22 16 -1 7 -11 12 -20
10z"/>
<path d="M583 1724 c-4 -11 -8 -12 -13 -4 -5 9 -9 9 -14 1 -4 -6 -4 -11 1 -12
4 0 17 -2 28 -4 20 -4 38 13 29 27 -8 13 -24 9 -31 -8z"/>
<path d="M870 1706 c7 -7 13 -7 20 0 6 6 3 10 -10 10 -13 0 -16 -4 -10 -10z"/>
<path d="M496 1645 c-18 -14 -24 -25 -17 -29 6 -4 11 -2 11 3 0 6 7 11 15 11
8 0 15 -5 15 -11 0 -5 -6 -7 -12 -3 -9 5 -9 2 1 -9 15 -19 46 -23 56 -7 3 6 1
10 -5 10 -6 0 -8 10 -4 27 6 21 4 25 -9 20 -9 -3 -17 -2 -19 3 -2 4 -16 -2
-32 -15z"/>
<path d="M1435 1579 c4 -6 -4 -22 -16 -37 l-24 -26 31 25 c29 22 35 49 12 49
-5 0 -6 -5 -3 -11z"/>
<path d="M1334 1549 c-3 -6 -1 -16 5 -22 8 -8 11 -5 11 11 0 24 -5 28 -16 11z"/>
<path d="M1235 1540 c-3 -5 -1 -10 4 -10 6 0 11 5 11 10 0 6 -2 10 -4 10 -3 0
-8 -4 -11 -10z"/>
<path d="M606 1524 c-9 -22 3 -32 14 -14 12 19 12 30 1 30 -5 0 -12 -7 -15
-16z"/>
<path d="M1174 1523 c-7 -2 -10 -13 -7 -23 5 -17 7 -18 20 -4 16 16 7 35 -13
27z"/>
<path d="M1610 1510 c0 -5 6 -10 13 -11 6 0 -1 -6 -17 -13 -27 -12 -27 -13 -7
-19 21 -5 30 -27 10 -27 -5 0 -7 -5 -3 -12 4 -7 3 -8 -5 -4 -6 4 -9 12 -6 17
4 5 1 9 -4 9 -6 0 -11 -7 -11 -15 0 -8 -7 -15 -16 -15 -11 0 -14 6 -9 20 3 11
1 28 -5 37 -8 14 -9 9 -7 -25 3 -31 0 -45 -12 -53 -13 -8 -12 -9 6 -4 32 9 40
-15 12 -36 -13 -10 -18 -19 -11 -19 7 0 10 -4 7 -10 -3 -5 1 -10 11 -10 13 0
14 3 5 14 -9 10 -8 16 4 26 9 7 19 10 22 6 4 -4 1 -12 -7 -17 -12 -9 -12 -10
3 -5 9 3 24 9 34 13 12 5 14 3 8 -8 -8 -12 -6 -12 8 0 12 9 14 18 7 30 -6 13
-4 22 11 34 21 19 33 22 24 7 -3 -5 0 -10 8 -10 8 0 13 -9 11 -22 -1 -13 -3
-27 -3 -32 -1 -5 -8 -3 -16 4 -8 7 -15 9 -15 5 0 -11 44 -51 64 -58 14 -6 15
-3 5 14 -6 12 -7 19 -1 15 5 -3 15 1 22 10 12 13 9 14 -20 9 -27 -5 -31 -3
-26 10 3 9 6 23 6 31 0 9 4 13 9 10 5 -3 11 2 14 13 2 11 -3 23 -14 30 -11 6
-19 20 -19 30 0 24 -4 26 -52 35 -24 4 -38 3 -38 -4z m40 -75 c0 -8 -7 -15
-15 -15 -13 0 -14 3 -3 15 16 18 18 18 18 0z"/>
<path d="M1310 1502 c0 -7 -7 -12 -15 -12 -16 0 -19 -18 -6 -38 6 -10 12 -5
21 18 7 17 10 33 6 37 -3 3 -6 1 -6 -5z"/>
<path d="M863 1488 c-12 -19 -33 -60 -33 -64 0 -2 7 -4 16 -4 9 0 22 -7 28
-15 8 -10 15 -12 26 -5 12 8 12 12 2 18 -8 5 -11 20 -8 35 5 30 -17 56 -31 35z"/>
<path d="M1126 1484 c-8 -22 -8 -24 8 -24 19 0 28 27 11 34 -7 2 -16 -2 -19
-10z"/>
<path d="M1036 1462 c-3 -5 -19 -7 -36 -4 -35 5 -60 -12 -60 -40 0 -27 28 -34
45 -12 12 15 16 16 23 6 7 -11 15 -8 36 13 14 14 26 30 26 35 0 12 -27 13 -34
2z"/>
<path d="M1503 1436 c3 -8 2 -17 -4 -20 -5 -2 -4 -3 3 -2 17 3 23 36 8 36 -7
0 -10 -6 -7 -14z"/>
<path d="M1767 1432 c-15 -10 -25 -21 -21 -24 3 -4 1 -16 -5 -27 -9 -16 -9
-20 1 -16 7 3 20 0 28 -5 13 -8 13 -11 1 -19 -8 -5 -12 -18 -8 -30 3 -12 0
-24 -5 -28 -7 -4 -8 -1 -3 6 4 7 -5 5 -21 -5 -16 -10 -30 -19 -31 -19 -4 -2
129 2 140 4 4 0 7 9 8 19 0 13 2 14 6 2 4 -8 11 3 19 29 17 59 4 88 -54 118
-29 16 -22 16 -55 -5z m13 -12 c0 -5 -5 -10 -11 -10 -5 0 -7 5 -4 10 3 6 8 10
11 10 2 0 4 -4 4 -10z m30 -21 c0 -6 -4 -7 -10 -4 -5 3 -10 11 -10 16 0 6 5 7
10 4 6 -3 10 -11 10 -16z m17 -11 c-3 -8 -6 -5 -6 6 -1 11 2 17 5 13 3 -3 4
-12 1 -19z"/>
<path d="M1900 1280 c-9 -6 -10 -10 -3 -10 6 0 15 5 18 10 8 12 4 12 -15 0z"/>
<path d="M1865 1250 c3 -5 8 -10 11 -10 2 0 4 5 4 10 0 6 -5 10 -11 10 -5 0
-7 -4 -4 -10z"/>
<path d="M1765 1240 c-3 -5 1 -10 10 -10 9 0 13 5 10 10 -3 6 -8 10 -10 10 -2
0 -7 -4 -10 -10z"/>
<path d="M1826 1238 c5 -8 2 -9 -9 -5 -11 4 -17 1 -17 -8 0 -22 28 -18 40 5 9
16 8 20 -5 20 -10 0 -13 -5 -9 -12z"/>
<path d="M2050 1219 c-11 -8 -12 -12 -2 -16 6 -2 9 -9 6 -14 -3 -6 -11 -5 -20
2 -12 10 -13 8 -5 -14 7 -18 7 -27 -2 -30 -7 -2 -9 -7 -6 -11 3 -4 16 2 28 11
17 14 22 27 19 50 -2 27 -6 31 -18 22z"/>
<path d="M1770 1180 c0 -6 4 -10 9 -10 5 0 12 -8 14 -17 4 -14 5 -13 6 3 0 12
-6 24 -14 28 -8 3 -15 1 -15 -4z"/>
<path d="M1831 1183 c-1 -6 -4 -20 -7 -30 -5 -17 -5 -17 6 0 6 10 9 23 6 30
-3 9 -5 9 -5 0z"/>
<path d="M1861 1174 c0 -11 3 -14 6 -6 3 7 2 16 -1 19 -3 4 -6 -2 -5 -13z"/>
<path d="M1892 1170 c-7 -11 -8 -20 -3 -20 9 0 24 30 18 36 -1 2 -8 -6 -15
-16z"/>
<path d="M1990 1180 c0 -5 5 -10 10 -10 6 0 10 5 10 10 0 6 -4 10 -10 10 -5 0
-10 -4 -10 -10z"/>
<path d="M1841 1134 c0 -11 3 -14 6 -6 3 7 2 16 -1 19 -3 4 -6 -2 -5 -13z"/>
<path d="M957 1110 c-18 -18 -18 -18 0 -16 10 2 19 10 21 19 4 21 2 21 -21 -3z"/>
<path d="M1811 1096 c-7 -8 -8 -17 -3 -20 6 -3 12 3 15 14 6 24 4 25 -12 6z"/>
<path d="M790 1091 c0 -5 7 -12 16 -15 24 -9 28 -7 14 9 -14 17 -30 20 -30 6z"/>
<path d="M2006 1075 c-9 -26 -7 -32 5 -12 6 10 9 21 6 23 -2 3 -7 -2 -11 -11z"/>
<path d="M2085 1029 c-4 -11 -13 -18 -20 -15 -9 3 -11 -2 -8 -15 5 -17 8 -18
26 -6 11 7 22 23 24 35 4 28 -13 29 -22 1z"/>
<path d="M1993 1025 c0 -8 4 -12 9 -9 5 3 6 10 3 15 -9 13 -12 11 -12 -6z"/>
<path d="M1215 1011 c-3 -5 -1 -12 5 -16 5 -3 10 1 10 9 0 18 -6 21 -15 7z"/>
<path d="M1150 996 c0 -20 13 -27 30 -14 12 8 12 9 -2 4 -10 -3 -18 -1 -18 4
0 5 8 11 18 13 13 4 11 5 -5 6 -14 1 -23 -5 -23 -13z"/>
<path d="M1780 985 c0 -8 4 -15 8 -15 5 0 9 7 9 15 0 8 -4 15 -9 15 -4 0 -8
-7 -8 -15z"/>
<path d="M1458 955 c-8 -8 1 -35 17 -52 15 -14 40 -21 43 -10 6 20 0 27 -20
24 -15 -1 -23 5 -27 21 -3 13 -9 21 -13 17z"/>
<path d="M1250 940 c0 -5 5 -10 11 -10 5 0 7 5 4 10 -3 6 -8 10 -11 10 -2 0
-4 -4 -4 -10z"/>
<path d="M1950 911 c0 -5 5 -13 10 -16 6 -3 10 -2 10 4 0 5 -4 13 -10 16 -5 3
-10 2 -10 -4z"/>
<path d="M2012 890 c-8 -13 -8 -20 -2 -20 6 0 13 7 17 15 9 24 -1 27 -15 5z"/>
<path d="M1937 883 c-4 -3 -7 -11 -7 -17 0 -6 5 -5 12 2 6 6 9 14 7 17 -3 3
-9 2 -12 -2z"/>
<path d="M2142 881 c-9 -5 -3 -8 18 -9 17 0 28 4 25 9 -8 11 -26 11 -43 0z"/>
<path d="M1533 864 c-17 -18 -18 -43 -1 -26 17 17 33 15 19 -2 -6 -7 -9 -20
-5 -29 3 -8 1 -18 -5 -22 -6 -3 -11 -15 -11 -26 0 -11 -7 -31 -16 -45 -13 -19
-14 -28 -6 -36 9 -9 8 -15 -1 -26 -10 -13 -9 -14 10 -3 13 6 22 15 21 19 -1 4
2 15 7 25 4 10 5 21 1 24 -3 4 2 15 11 25 15 17 15 20 3 28 -13 8 -12 10 3 10
20 0 23 16 5 23 -10 3 -10 9 0 27 7 12 12 23 10 24 -2 1 -10 7 -18 13 -11 8
-18 8 -27 -3z m-2 -167 c-10 -9 -11 -8 -5 6 3 10 9 15 12 12 3 -3 0 -11 -7
-18z"/>
<path d="M1996 845 c-9 -26 -7 -32 5 -12 6 10 9 21 6 23 -2 3 -7 -2 -11 -11z"/>
<path d="M1320 846 c0 -2 12 -12 28 -21 15 -10 24 -14 20 -10 -4 5 -3 14 3 22
9 10 5 13 -20 13 -17 0 -31 -2 -31 -4z"/>
<path d="M1947 831 c-4 -17 -3 -21 5 -13 5 5 8 16 6 23 -3 8 -7 3 -11 -10z"/>
<path d="M1501 784 c0 -11 3 -14 6 -6 3 7 2 16 -1 19 -3 4 -6 -2 -5 -13z"/>
<path d="M2270 791 c0 -5 5 -13 10 -16 6 -3 10 -2 10 4 0 5 -4 13 -10 16 -5 3
-10 2 -10 -4z"/>
<path d="M1160 776 c0 -2 7 -7 16 -10 8 -3 12 -2 9 4 -6 10 -25 14 -25 6z"/>
<path d="M1745 769 c-4 -6 -5 -12 -2 -15 2 -3 7 2 10 11 7 17 1 20 -8 4z"/>
<path d="M1741 733 c-1 -7 -8 -10 -17 -6 -14 5 -16 2 -10 -20 5 -22 3 -25 -10
-20 -14 5 -15 3 -5 -15 17 -31 26 -27 50 19 12 22 17 38 12 35 -5 -4 -12 0
-14 6 -4 10 -6 10 -6 1z"/>
<path d="M1370 701 c0 -6 5 -13 10 -16 6 -3 10 1 10 9 0 9 -4 16 -10 16 -5 0
-10 -4 -10 -9z"/>
<path d="M1626 675 c4 -8 10 -12 15 -9 14 8 10 24 -6 24 -9 0 -12 -6 -9 -15z"/>
<path d="M440 665 c0 -8 5 -15 10 -15 6 0 10 7 10 15 0 8 -4 15 -10 15 -5 0
-10 -7 -10 -15z"/>
<path d="M1465 633 c-11 -23 -13 -63 -4 -63 13 0 18 29 6 33 -9 3 -8 8 2 21 8
9 12 19 9 22 -3 3 -9 -3 -13 -13z"/>
<path d="M1495 620 c-8 -13 15 -24 27 -12 6 6 4 11 -6 15 -8 3 -18 2 -21 -3z"/>
<path d="M1432 590 c0 -14 2 -19 5 -12 2 6 2 18 0 25 -3 6 -5 1 -5 -13z"/>
<path d="M1526 576 c-9 -14 -16 -33 -16 -42 0 -10 -5 -14 -15 -10 -8 3 -15 1
-15 -5 0 -17 45 -6 45 11 1 8 7 26 14 38 17 33 7 38 -13 8z"/>
<path d="M1422 540 c0 -14 2 -19 5 -12 2 6 2 18 0 25 -3 6 -5 1 -5 -13z"/>
<path d="M1648 543 c-10 -2 -18 -9 -18 -14 0 -6 -4 -8 -9 -5 -5 3 -12 -2 -15
-11 -5 -12 1 -23 18 -36 15 -10 23 -24 19 -32 -3 -8 -1 -15 3 -16 5 0 30 -2
56 -3 26 -2 55 -9 63 -16 24 -20 34 0 19 35 -7 17 -13 26 -14 22 0 -4 -10 3
-22 15 -13 13 -32 23 -43 21 -12 -2 -9 3 10 12 l30 14 -33 1 c-20 0 -31 4 -27
10 6 10 -6 11 -37 3z m12 -53 c0 -5 -7 -7 -15 -4 -8 4 -15 8 -15 10 0 2 7 4
15 4 8 0 15 -4 15 -10z"/>
<path d="M1430 510 c-1 -3 -3 -21 -4 -41 -1 -26 2 -35 11 -32 7 3 13 10 12 17
-2 17 -17 62 -19 56z"/>
<path d="M1851 494 c0 -11 3 -14 6 -6 3 7 2 16 -1 19 -3 4 -6 -2 -5 -13z"/>
<path d="M1535 490 c-3 -5 -1 -10 4 -10 6 0 11 5 11 10 0 6 -2 10 -4 10 -3 0
-8 -4 -11 -10z"/>
<path d="M1835 450 c-3 -5 1 -10 9 -10 9 0 16 5 16 10 0 6 -4 10 -9 10 -6 0
-13 -4 -16 -10z"/>
<path d="M620 383 c0 -7 16 -30 36 -50 20 -21 34 -32 30 -25 -4 6 -2 12 4 12
6 0 8 5 5 11 -4 6 -9 8 -12 5 -3 -2 -18 10 -34 27 -15 18 -29 26 -29 20z"/>
<path d="M920 381 c8 -5 35 -11 60 -14 l45 -6 -35 14 c-39 15 -95 20 -70 6z"/>
<path d="M1815 360 c3 -5 10 -10 16 -10 5 0 9 5 9 10 0 6 -7 10 -16 10 -8 0
-12 -4 -9 -10z"/>
<path d="M1038 353 c7 -3 16 -2 19 1 4 3 -2 6 -13 5 -11 0 -14 -3 -6 -6z"/>
<path d="M1085 340 c11 -5 27 -9 35 -9 9 0 8 4 -5 9 -11 5 -27 9 -35 9 -9 0
-8 -4 5 -9z"/>
<path d="M1780 340 c-8 -5 -25 -10 -37 -10 -13 0 -23 -4 -23 -10 0 -16 50 -7
67 12 18 20 16 23 -7 8z"/>
<path d="M1000 336 c0 -2 9 -6 20 -9 11 -3 18 -1 14 4 -5 9 -34 13 -34 5z"/>
<path d="M1806 322 c-2 -4 11 -6 30 -4 19 2 34 6 34 8 0 8 -59 4 -64 -4z"/>
<path d="M1693 303 c-23 -9 -14 -23 15 -22 17 1 20 3 9 6 -9 2 -15 9 -12 14 7
10 6 10 -12 2z"/>
<path d="M870 290 c0 -7 9 -14 20 -17 11 -3 20 -9 20 -13 0 -5 13 -13 29 -18
44 -16 29 13 -18 35 -20 9 -39 18 -43 20 -5 2 -8 -1 -8 -7z"/>
<path d="M1241 236 c2 -2 15 -9 29 -15 24 -11 24 -11 6 3 -16 13 -49 24 -35
12z"/>
<path d="M1788 220 c-15 -4 -37 -18 -50 -30 l-23 -22 30 14 c17 7 32 15 35 19
3 3 19 11 35 17 35 12 13 14 -27 2z"/>
<path d="M1398 198 c5 -5 16 -8 23 -6 8 3 3 7 -10 11 -17 4 -21 3 -13 -5z"/>
<path d="M1115 179 c-27 -5 -70 -15 -95 -23 l-45 -15 45 3 c51 5 114 19 150
34 29 13 14 13 -55 1z"/>
<path d="M1595 183 c-31 -8 -38 -20 -15 -26 12 -3 19 -3 16 1 -4 3 6 11 21 18
28 12 16 16 -22 7z"/>
<path d="M1420 140 c0 -5 7 -10 16 -10 8 0 12 5 9 10 -3 6 -10 10 -16 10 -5 0
-9 -4 -9 -10z"/>
<path d="M1093 123 c-17 -2 -36 -10 -42 -17 -8 -10 0 -11 44 -3 30 6 52 14 49
19 -3 4 -8 7 -12 6 -4 0 -21 -3 -39 -5z"/>
<path d="M547 819 c7 -7 15 -10 18 -7 3 3 -2 9 -12 12 -14 6 -15 5 -6 -5z"/>
</g>
</svg>
